<?xml version="1.0" encoding="utf-8"?>
<!-- Generator: Adobe Illustrator 18.0.0, SVG Export Plug-In . SVG Version: 6.00 Build 0)  -->
<!DOCTYPE svg PUBLIC "-//W3C//DTD SVG 1.1//EN" "http://www.w3.org/Graphics/SVG/1.1/DTD/svg11.dtd">
<svg version="1.1" id="Lager_1" xmlns="http://www.w3.org/2000/svg" xmlns:xlink="http://www.w3.org/1999/xlink" x="0px" y="0px"
	 viewBox="0 0 178.6 178.6" enable-background="new 0 0 178.6 178.6" xml:space="preserve">
<g>
	<g>
		<path fill="#EE3124" d="M89.3,0C76.6,0,65.8,26.1,62.2,62.2C26.1,65.8,0,76.6,0,89.3c0,12.7,26.1,23.4,62.2,27.1
			c3.7,36.1,14.4,62.2,27.1,62.2c15.7,0,28.4-40,28.4-89.3C117.7,40,105,0,89.3,0z"/>
		<linearGradient id="SVGID_1_" gradientUnits="userSpaceOnUse" x1="102.3522" y1="70.2945" x2="132.8085" y2="123.0464">
			<stop  offset="6.134970e-003" style="stop-color:#77787B"/>
			<stop  offset="0.2724" style="stop-color:#5C5D5F"/>
			<stop  offset="0.5686" style="stop-color:#404042"/>
			<stop  offset="0.8217" style="stop-color:#191919"/>
			<stop  offset="1" style="stop-color:#000000"/>
		</linearGradient>
		<path fill="url(#SVGID_1_)" d="M116.4,62.2l-54.2,54.2c8.5,0.9,17.7,1.3,27.1,1.3c49.3,0,89.3-12.7,89.3-28.4
			C178.6,76.6,152.5,65.8,116.4,62.2z"/>
		<path fill="#7A1600" d="M116.4,62.2L116.4,62.2l-54.2,54.2c8.5,0.9,17.7,1.3,27.1,1.3c9.4,0,18.6-0.5,27.1-1.3
			c0.9-8.5,1.3-17.7,1.3-27.1S117.3,70.7,116.4,62.2z"/>
		<path fill="#B32317" d="M62.2,116.4l54.2-54.2c-8.5-0.9-17.6-1.3-27.1-1.3c-9.4,0-18.6,0.5-27.1,1.3c-0.9,8.5-1.3,17.7-1.3,27.1
			S61.3,107.8,62.2,116.4C62.2,116.4,62.2,116.4,62.2,116.4z"/>
	</g>
</g>
</svg>
