<?xml version="1.0" encoding="utf-8"?>
<!-- Generator: Adobe Illustrator 18.0.0, SVG Export Plug-In . SVG Version: 6.00 Build 0)  -->
<!DOCTYPE svg PUBLIC "-//W3C//DTD SVG 1.1//EN" "http://www.w3.org/Graphics/SVG/1.1/DTD/svg11.dtd">
<svg version="1.1" id="Lager_1" xmlns="http://www.w3.org/2000/svg" xmlns:xlink="http://www.w3.org/1999/xlink" x="0px" y="0px"
	 viewBox="0 0 652.6 178.6" enable-background="new 0 0 652.6 178.6" xml:space="preserve">
<g>
	<g>
		<g>
			<path d="M216.1,127.8h57.7c12.3,0,22.3-9.4,22.3-20.9V103c0-11.3-9.4-20.5-21.5-20.9l-0.4,0h-39c-3.4,0-6.1-2.6-6.1-5.8v-3.8
				c0-3.2,2.8-5.8,6.1-5.8h56.5V51.5h-56.5c-12.3,0-22.3,9.4-22.3,20.9v3.8c0,11.5,10,20.9,22.3,20.9h38.6c3.4,0,6.1,2.6,6.1,5.8
				v3.9c0,3.2-2.8,5.8-6.1,5.8h-57.7V127.8z"/>
		</g>
		<g>
			<g>
				<path d="M315.2,127.8h16.2V51.5h-16.1L315.2,127.8z"/>
			</g>
		</g>
		<g>
			<path d="M541.2,127.8h16.2l0-55.3c0-11.6-10-20.9-22.3-20.9h-80.5v76.3h16.1V66.7h26.9l0,61.1h16.1V66.7h21.4
				c3.4,0,6.1,2.6,6.1,5.8L541.2,127.8z"/>
		</g>
		<g>
			<path d="M652.6,72.5c0-11.5-10-20.9-22.3-20.9H579v15.2h51.3c3.4,0,6.1,2.6,6.1,5.8l0,9.5h-40.7c-12.3,0-22.3,9.4-22.3,21v3.9
				c0,11.6,10,21,22.3,21h56.8L652.6,72.5z M636.4,112.6L636.4,112.6h-40.7c-3.4,0-6.1-2.6-6.1-5.8V103c0-3.2,2.8-5.8,6.1-5.8h40.7
				L636.4,112.6z"/>
		</g>
		<g>
			<path d="M353.2,106.9c0,11.5,10,20.9,22.3,20.9h56.9V82.1h-42.5v15.2h26.3v15.4h-40.6c-3.4,0-6.1-2.6-6.1-5.8l0-34.4
				c0-3.2,2.8-5.8,6.1-5.8h56.7V51.5h-56.7c-12.3,0-22.3,9.4-22.3,21L353.2,106.9z"/>
		</g>
	</g>
	<g>
		<path fill="#EE3124" d="M89.3,0C76.6,0,65.8,26.1,62.2,62.2C26.1,65.8,0,76.6,0,89.3c0,12.7,26.1,23.4,62.2,27.1
			c3.7,36.1,14.4,62.2,27.1,62.2c15.7,0,28.4-40,28.4-89.3C117.7,40,105,0,89.3,0z"/>
		<linearGradient id="SVGID_1_" gradientUnits="userSpaceOnUse" x1="102.3522" y1="70.2945" x2="132.8085" y2="123.0464">
			<stop  offset="6.134970e-003" style="stop-color:#77787B"/>
			<stop  offset="0.2724" style="stop-color:#5C5D5F"/>
			<stop  offset="0.5686" style="stop-color:#404042"/>
			<stop  offset="0.8217" style="stop-color:#191919"/>
			<stop  offset="1" style="stop-color:#000000"/>
		</linearGradient>
		<path fill="url(#SVGID_1_)" d="M116.4,62.2l-54.2,54.2c8.5,0.9,17.7,1.3,27.1,1.3c49.3,0,89.3-12.7,89.3-28.4
			C178.6,76.6,152.5,65.8,116.4,62.2z"/>
		<path fill="#7A1600" d="M116.4,62.2L116.4,62.2l-54.2,54.2c8.5,0.9,17.7,1.3,27.1,1.3c9.4,0,18.6-0.5,27.1-1.3
			c0.9-8.5,1.3-17.7,1.3-27.1S117.3,70.7,116.4,62.2z"/>
		<path fill="#B32317" d="M62.2,116.4l54.2-54.2c-8.5-0.9-17.6-1.3-27.1-1.3c-9.4,0-18.6,0.5-27.1,1.3c-0.9,8.5-1.3,17.7-1.3,27.1
			S61.3,107.8,62.2,116.4C62.2,116.4,62.2,116.4,62.2,116.4z"/>
	</g>
</g>
</svg>
